<svg xmlns="http://www.w3.org/2000/svg" version="1.1" xmlns:xlink="http://www.w3.org/1999/xlink" xmlns:svgjs="http://svgjs.com/svgjs" width="1450" height="560" preserveAspectRatio="none" viewBox="0 0 1450 560">
    <g mask="url(&quot;#SvgjsMask2150&quot;)" fill="none">
        <rect width="1450" height="560" x="0" y="0" fill="url(#SvgjsLinearGradient2151)"></rect>
        <use xlink:href="#SvgjsSymbol2158" x="0" y="0"></use>
        <use xlink:href="#SvgjsSymbol2158" x="720" y="0"></use>
        <use xlink:href="#SvgjsSymbol2158" x="1440" y="0"></use>
    </g>
    <defs>
        <mask id="SvgjsMask2150">
            <rect width="1450" height="560" fill="#ffffff"></rect>
        </mask>
        <linearGradient x1="84.66%" y1="139.73%" x2="15.34%" y2="-39.73%" gradientUnits="userSpaceOnUse" id="SvgjsLinearGradient2151">
            <stop stop-color="#0e2a47" offset="0"></stop>
            <stop stop-color="rgba(0, 57, 131, 1)" offset="1"></stop>
        </linearGradient>
        <path d="M-1 0 a1 1 0 1 0 2 0 a1 1 0 1 0 -2 0z" id="SvgjsPath2157"></path>
        <path d="M-3 0 a3 3 0 1 0 6 0 a3 3 0 1 0 -6 0z" id="SvgjsPath2155"></path>
        <path d="M-5 0 a5 5 0 1 0 10 0 a5 5 0 1 0 -10 0z" id="SvgjsPath2154"></path>
        <path d="M2 -2 L-2 2z" id="SvgjsPath2152"></path>
        <path d="M6 -6 L-6 6z" id="SvgjsPath2153"></path>
        <path d="M30 -30 L-30 30z" id="SvgjsPath2156"></path>
    </defs>
    <symbol id="SvgjsSymbol2158">
        <use xlink:href="#SvgjsPath2152" x="30" y="30" stroke="#1c538e"></use>
        <use xlink:href="#SvgjsPath2153" x="30" y="90" stroke="#1c538e"></use>
        <use xlink:href="#SvgjsPath2152" x="30" y="150" stroke="#1c538e"></use>
        <use xlink:href="#SvgjsPath2154" x="30" y="210" stroke="#1c538e"></use>
        <use xlink:href="#SvgjsPath2153" x="30" y="270" stroke="#1c538e"></use>
        <use xlink:href="#SvgjsPath2153" x="30" y="330" stroke="#1c538e"></use>
        <use xlink:href="#SvgjsPath2154" x="30" y="390" stroke="#1c538e"></use>
        <use xlink:href="#SvgjsPath2154" x="30" y="450" stroke="#1c538e"></use>
        <use xlink:href="#SvgjsPath2154" x="30" y="510" stroke="#1c538e"></use>
        <use xlink:href="#SvgjsPath2153" x="30" y="570" stroke="#1c538e"></use>
        <use xlink:href="#SvgjsPath2153" x="90" y="30" stroke="#1c538e"></use>
        <use xlink:href="#SvgjsPath2155" x="90" y="90" stroke="#1c538e"></use>
        <use xlink:href="#SvgjsPath2152" x="90" y="150" stroke="#1c538e"></use>
        <use xlink:href="#SvgjsPath2153" x="90" y="210" stroke="#1c538e"></use>
        <use xlink:href="#SvgjsPath2154" x="90" y="270" stroke="#1c538e"></use>
        <use xlink:href="#SvgjsPath2154" x="90" y="330" stroke="#1c538e"></use>
        <use xlink:href="#SvgjsPath2152" x="90" y="390" stroke="#1c538e"></use>
        <use xlink:href="#SvgjsPath2153" x="90" y="450" stroke="#1c538e"></use>
        <use xlink:href="#SvgjsPath2154" x="90" y="510" stroke="#1c538e"></use>
        <use xlink:href="#SvgjsPath2156" x="90" y="570" stroke="#1c538e" stroke-width="3"></use>
        <use xlink:href="#SvgjsPath2153" x="150" y="30" stroke="#1c538e"></use>
        <use xlink:href="#SvgjsPath2153" x="150" y="90" stroke="#1c538e"></use>
        <use xlink:href="#SvgjsPath2153" x="150" y="150" stroke="#1c538e"></use>
        <use xlink:href="#SvgjsPath2157" x="150" y="210" stroke="#1c538e"></use>
        <use xlink:href="#SvgjsPath2157" x="150" y="270" stroke="#1c538e"></use>
        <use xlink:href="#SvgjsPath2153" x="150" y="330" stroke="#1c538e"></use>
        <use xlink:href="#SvgjsPath2154" x="150" y="390" stroke="#1c538e"></use>
        <use xlink:href="#SvgjsPath2156" x="150" y="450" stroke="#1c538e" stroke-width="3"></use>
        <use xlink:href="#SvgjsPath2154" x="150" y="510" stroke="#1c538e"></use>
        <use xlink:href="#SvgjsPath2155" x="150" y="570" stroke="#1c538e"></use>
        <use xlink:href="#SvgjsPath2152" x="210" y="30" stroke="#1c538e"></use>
        <use xlink:href="#SvgjsPath2154" x="210" y="90" stroke="#1c538e"></use>
        <use xlink:href="#SvgjsPath2155" x="210" y="150" stroke="#1c538e"></use>
        <use xlink:href="#SvgjsPath2154" x="210" y="210" stroke="#1c538e"></use>
        <use xlink:href="#SvgjsPath2155" x="210" y="270" stroke="#1c538e"></use>
        <use xlink:href="#SvgjsPath2154" x="210" y="330" stroke="#1c538e"></use>
        <use xlink:href="#SvgjsPath2154" x="210" y="390" stroke="#1c538e"></use>
        <use xlink:href="#SvgjsPath2154" x="210" y="450" stroke="#1c538e"></use>
        <use xlink:href="#SvgjsPath2157" x="210" y="510" stroke="#1c538e"></use>
        <use xlink:href="#SvgjsPath2153" x="210" y="570" stroke="#1c538e"></use>
        <use xlink:href="#SvgjsPath2156" x="270" y="30" stroke="#1c538e" stroke-width="3"></use>
        <use xlink:href="#SvgjsPath2153" x="270" y="90" stroke="#1c538e"></use>
        <use xlink:href="#SvgjsPath2152" x="270" y="150" stroke="#1c538e"></use>
        <use xlink:href="#SvgjsPath2157" x="270" y="210" stroke="#1c538e"></use>
        <use xlink:href="#SvgjsPath2153" x="270" y="270" stroke="#1c538e"></use>
        <use xlink:href="#SvgjsPath2153" x="270" y="330" stroke="#1c538e"></use>
        <use xlink:href="#SvgjsPath2153" x="270" y="390" stroke="#1c538e"></use>
        <use xlink:href="#SvgjsPath2154" x="270" y="450" stroke="#1c538e"></use>
        <use xlink:href="#SvgjsPath2153" x="270" y="510" stroke="#1c538e"></use>
        <use xlink:href="#SvgjsPath2157" x="270" y="570" stroke="#1c538e"></use>
        <use xlink:href="#SvgjsPath2155" x="330" y="30" stroke="#1c538e"></use>
        <use xlink:href="#SvgjsPath2157" x="330" y="90" stroke="#1c538e"></use>
        <use xlink:href="#SvgjsPath2153" x="330" y="150" stroke="#1c538e"></use>
        <use xlink:href="#SvgjsPath2153" x="330" y="210" stroke="#1c538e"></use>
        <use xlink:href="#SvgjsPath2153" x="330" y="270" stroke="#1c538e"></use>
        <use xlink:href="#SvgjsPath2153" x="330" y="330" stroke="#1c538e"></use>
        <use xlink:href="#SvgjsPath2154" x="330" y="390" stroke="#1c538e"></use>
        <use xlink:href="#SvgjsPath2156" x="330" y="450" stroke="#1c538e" stroke-width="3"></use>
        <use xlink:href="#SvgjsPath2154" x="330" y="510" stroke="#1c538e"></use>
        <use xlink:href="#SvgjsPath2154" x="330" y="570" stroke="#1c538e"></use>
        <use xlink:href="#SvgjsPath2153" x="390" y="30" stroke="#1c538e"></use>
        <use xlink:href="#SvgjsPath2154" x="390" y="90" stroke="#1c538e"></use>
        <use xlink:href="#SvgjsPath2154" x="390" y="150" stroke="#1c538e"></use>
        <use xlink:href="#SvgjsPath2153" x="390" y="210" stroke="#1c538e"></use>
        <use xlink:href="#SvgjsPath2156" x="390" y="270" stroke="#1c538e" stroke-width="3"></use>
        <use xlink:href="#SvgjsPath2152" x="390" y="330" stroke="#1c538e"></use>
        <use xlink:href="#SvgjsPath2154" x="390" y="390" stroke="#1c538e"></use>
        <use xlink:href="#SvgjsPath2154" x="390" y="450" stroke="#1c538e"></use>
        <use xlink:href="#SvgjsPath2154" x="390" y="510" stroke="#1c538e"></use>
        <use xlink:href="#SvgjsPath2157" x="390" y="570" stroke="#1c538e"></use>
        <use xlink:href="#SvgjsPath2155" x="450" y="30" stroke="#1c538e"></use>
        <use xlink:href="#SvgjsPath2155" x="450" y="90" stroke="#1c538e"></use>
        <use xlink:href="#SvgjsPath2154" x="450" y="150" stroke="#1c538e"></use>
        <use xlink:href="#SvgjsPath2155" x="450" y="210" stroke="#1c538e"></use>
        <use xlink:href="#SvgjsPath2155" x="450" y="270" stroke="#1c538e"></use>
        <use xlink:href="#SvgjsPath2152" x="450" y="330" stroke="#1c538e"></use>
        <use xlink:href="#SvgjsPath2154" x="450" y="390" stroke="#1c538e"></use>
        <use xlink:href="#SvgjsPath2154" x="450" y="450" stroke="#1c538e"></use>
        <use xlink:href="#SvgjsPath2154" x="450" y="510" stroke="#1c538e"></use>
        <use xlink:href="#SvgjsPath2156" x="450" y="570" stroke="#1c538e" stroke-width="3"></use>
        <use xlink:href="#SvgjsPath2152" x="510" y="30" stroke="#1c538e"></use>
        <use xlink:href="#SvgjsPath2153" x="510" y="90" stroke="#1c538e"></use>
        <use xlink:href="#SvgjsPath2154" x="510" y="150" stroke="#1c538e"></use>
        <use xlink:href="#SvgjsPath2153" x="510" y="210" stroke="#1c538e"></use>
        <use xlink:href="#SvgjsPath2154" x="510" y="270" stroke="#1c538e"></use>
        <use xlink:href="#SvgjsPath2152" x="510" y="330" stroke="#1c538e"></use>
        <use xlink:href="#SvgjsPath2153" x="510" y="390" stroke="#1c538e"></use>
        <use xlink:href="#SvgjsPath2154" x="510" y="450" stroke="#1c538e"></use>
        <use xlink:href="#SvgjsPath2153" x="510" y="510" stroke="#1c538e"></use>
        <use xlink:href="#SvgjsPath2157" x="510" y="570" stroke="#1c538e"></use>
        <use xlink:href="#SvgjsPath2157" x="570" y="30" stroke="#1c538e"></use>
        <use xlink:href="#SvgjsPath2157" x="570" y="90" stroke="#1c538e"></use>
        <use xlink:href="#SvgjsPath2154" x="570" y="150" stroke="#1c538e"></use>
        <use xlink:href="#SvgjsPath2153" x="570" y="210" stroke="#1c538e"></use>
        <use xlink:href="#SvgjsPath2155" x="570" y="270" stroke="#1c538e"></use>
        <use xlink:href="#SvgjsPath2154" x="570" y="330" stroke="#1c538e"></use>
        <use xlink:href="#SvgjsPath2154" x="570" y="390" stroke="#1c538e"></use>
        <use xlink:href="#SvgjsPath2152" x="570" y="450" stroke="#1c538e"></use>
        <use xlink:href="#SvgjsPath2155" x="570" y="510" stroke="#1c538e"></use>
        <use xlink:href="#SvgjsPath2157" x="570" y="570" stroke="#1c538e"></use>
        <use xlink:href="#SvgjsPath2154" x="630" y="30" stroke="#1c538e"></use>
        <use xlink:href="#SvgjsPath2154" x="630" y="90" stroke="#1c538e"></use>
        <use xlink:href="#SvgjsPath2154" x="630" y="150" stroke="#1c538e"></use>
        <use xlink:href="#SvgjsPath2157" x="630" y="210" stroke="#1c538e"></use>
        <use xlink:href="#SvgjsPath2154" x="630" y="270" stroke="#1c538e"></use>
        <use xlink:href="#SvgjsPath2152" x="630" y="330" stroke="#1c538e"></use>
        <use xlink:href="#SvgjsPath2154" x="630" y="390" stroke="#1c538e"></use>
        <use xlink:href="#SvgjsPath2153" x="630" y="450" stroke="#1c538e"></use>
        <use xlink:href="#SvgjsPath2154" x="630" y="510" stroke="#1c538e"></use>
        <use xlink:href="#SvgjsPath2157" x="630" y="570" stroke="#1c538e"></use>
        <use xlink:href="#SvgjsPath2152" x="690" y="30" stroke="#1c538e"></use>
        <use xlink:href="#SvgjsPath2153" x="690" y="90" stroke="#1c538e"></use>
        <use xlink:href="#SvgjsPath2155" x="690" y="150" stroke="#1c538e"></use>
        <use xlink:href="#SvgjsPath2154" x="690" y="210" stroke="#1c538e"></use>
        <use xlink:href="#SvgjsPath2157" x="690" y="270" stroke="#1c538e"></use>
        <use xlink:href="#SvgjsPath2153" x="690" y="330" stroke="#1c538e"></use>
        <use xlink:href="#SvgjsPath2155" x="690" y="390" stroke="#1c538e"></use>
        <use xlink:href="#SvgjsPath2154" x="690" y="450" stroke="#1c538e"></use>
        <use xlink:href="#SvgjsPath2155" x="690" y="510" stroke="#1c538e"></use>
        <use xlink:href="#SvgjsPath2153" x="690" y="570" stroke="#1c538e"></use>
    </symbol>
</svg>